<?xml version="1.0" standalone="no"?>
<!DOCTYPE svg PUBLIC "-//W3C//DTD SVG 20010904//EN"
 "http://www.w3.org/TR/2001/REC-SVG-20010904/DTD/svg10.dtd">
<svg version="1.0" xmlns="http://www.w3.org/2000/svg"
 width="260.000000pt" height="260.000000pt" viewBox="0 0 260.000000 260.000000"
 preserveAspectRatio="xMidYMid meet">
<metadata>
Created by potrace 1.11, written by Peter Selinger 2001-2013
</metadata>
<g transform="translate(0.000000,260.000000) scale(0.100000,-0.100000)"
fill="#000000" stroke="none">
<path d="M0 1300 l0 -1300 1300 0 1300 0 0 1300 0 1300 -1300 0 -1300 0 0
-1300z m2540 560 c0 -47 -3 -60 -15 -60 -12 0 -15 -17 -15 -95 0 -78 -3 -95
-15 -95 -12 0 -15 -17 -15 -95 l0 -95 -35 0 -35 0 0 -105 c0 -87 -3 -105 -15
-105 -12 0 -15 -17 -15 -95 0 -78 -3 -95 -15 -95 -12 0 -15 -19 -15 -110 l0
-110 -1035 0 -1035 0 0 110 c0 91 3 110 15 110 12 0 15 17 15 95 0 78 3 95 15
95 11 0 15 12 15 45 l0 45 -125 0 -125 0 0 60 c0 47 3 60 15 60 12 0 15 17 15
95 0 78 3 95 15 95 12 0 15 17 15 95 0 88 1 95 20 95 18 0 20 7 20 60 l0 60
1175 0 1175 0 0 -60z"/>
<path d="M280 1705 c0 -78 -3 -95 -15 -95 -12 0 -15 -17 -15 -95 l0 -95 105 0
105 0 0 -105 c0 -87 -3 -105 -15 -105 -12 0 -15 -17 -15 -95 0 -78 -3 -95 -15
-95 -11 0 -15 -12 -15 -45 l0 -45 185 0 185 0 0 45 c0 33 4 45 15 45 12 0 15
17 15 95 0 88 1 95 20 95 19 0 20 7 20 105 l0 105 60 0 60 0 0 -105 c0 -87 -3
-105 -15 -105 -12 0 -15 -17 -15 -95 0 -78 -3 -95 -15 -95 -11 0 -15 -12 -15
-45 l0 -45 665 0 665 0 0 45 c0 33 4 45 15 45 12 0 15 17 15 95 0 78 3 95 15
95 11 0 15 12 15 45 l0 45 -110 0 -110 0 0 60 0 60 140 0 140 0 0 95 c0 78 3
95 15 95 12 0 15 17 15 95 l0 95 -1050 0 -1050 0 0 -95z m740 -65 c0 -20 -5
-30 -15 -30 -10 0 -15 -10 -15 -30 l0 -30 -125 0 -125 0 0 -65 c0 -51 -3 -65
-15 -65 -12 0 -15 -18 -15 -105 0 -87 -3 -105 -15 -105 -12 0 -15 -16 -15 -80
l0 -80 -60 0 -60 0 0 80 c0 64 3 80 15 80 12 0 15 18 15 105 0 87 3 105 15
105 12 0 15 14 15 65 l0 65 -125 0 -125 0 0 30 c0 20 5 30 15 30 10 0 15 10
15 30 l0 30 310 0 310 0 0 -30z m560 -385 c0 -33 -4 -45 -15 -45 -12 0 -15
-16 -15 -80 l0 -80 -250 0 -250 0 0 65 0 65 185 0 c158 0 185 2 185 15 0 8 7
15 15 15 11 0 15 12 15 45 l0 45 65 0 65 0 0 -45z m250 -15 l0 -60 170 0 170
0 0 -65 0 -65 -250 0 -250 0 0 65 c0 51 3 65 15 65 12 0 15 13 15 60 l0 60 65
0 65 0 0 -60z"/>
</g>
</svg>
